<?xml version="1.0" standalone="no"?>
<!DOCTYPE svg PUBLIC "-//W3C//DTD SVG 20010904//EN" "http://www.w3.org/TR/2001/REC-SVG-20010904/DTD/svg10.dtd">
<!-- Created using Krita: https://krita.org -->
<svg xmlns="http://www.w3.org/2000/svg" 
    xmlns:xlink="http://www.w3.org/1999/xlink"
    xmlns:krita="http://krita.org/namespaces/svg/krita"
    xmlns:sodipodi="http://sodipodi.sourceforge.net/DTD/sodipodi-0.dtd"
    width="122.88pt"
    height="122.88pt"
    viewBox="0 0 122.88 122.88">
<defs/>
<path id="shape0" transform="matrix(1.06952962896732 0 0 1.1419213724127 0 0)" fill="#ff0000" fill-rule="evenodd" stroke="#ff0000" stroke-width="2.0328" stroke-linecap="square" stroke-linejoin="bevel" d="M41.2842 38.1634L47.0448 0L58.886 35.348L81.4482 8.75879L81.4482 37.8505L114.892 51.3016L88.969 60.5296L101.45 94.7827L75.5277 71.6345L69.1271 107.608L58.2459 72.2601L38.0839 104.167L38.0839 70.696L14.7215 94.7827L25.9226 60.5296L0 60.5296L25.6026 47.5477L12.4813 14.0766Z"/><path id="shape0" transform="matrix(1.06952965235174 0 0 1.14192139737991 15.0773006134969 14.4880349344978)" fill="#ff8600" fill-rule="evenodd" stroke="#ff8600" stroke-width="2.0328" stroke-linecap="square" stroke-linejoin="bevel" d="M30.3088 28.6642L34.538 0L43.2312 26.5496L59.7953 6.57866L59.7953 28.4292L84.3478 38.5322L65.3167 45.4633L74.4798 71.1905L55.4487 53.8041L50.7497 80.8236L42.7613 54.274L27.9593 78.2391L27.9593 53.0992L10.8078 71.1905L19.0311 45.4633L0 45.4633L18.7962 35.7127L9.16314 10.5728Z"/>
</svg>
