<?xml version="1.0" standalone="no"?>
<!DOCTYPE svg PUBLIC "-//W3C//DTD SVG 20010904//EN" "http://www.w3.org/TR/2001/REC-SVG-20010904/DTD/svg10.dtd">
<!-- Created using Krita: https://krita.org -->
<svg xmlns="http://www.w3.org/2000/svg" 
    xmlns:xlink="http://www.w3.org/1999/xlink"
    xmlns:krita="http://krita.org/namespaces/svg/krita"
    xmlns:sodipodi="http://sodipodi.sourceforge.net/DTD/sodipodi-0.dtd"
    width="122.88pt"
    height="122.88pt"
    viewBox="0 0 122.88 122.88">
<defs/>
<rect id="shape1" transform="matrix(0.999999993319269 0 0 0.999999993319269 53.0517064082314 81.4158099775715)" fill="#753700" fill-rule="evenodd" stroke="#753700" stroke-width="1.3632" stroke-linecap="square" stroke-linejoin="bevel" width="23.28" height="9.12"/><rect id="shape0" transform="matrix(0.84418221403246 0.536056311564932 -0.536056311564932 0.84418221403246 72.1409135271217 49.0429559943806)" fill="#243bf5" fill-rule="evenodd" stroke="#243bf5" stroke-width="1.3632" stroke-linecap="square" stroke-linejoin="bevel" width="50.64" height="10.08"/><circle id="shape0" transform="translate(6.24, 28.08)" r="33.36" cx="33.36" cy="33.36" fill="#243bf5" fill-rule="evenodd" stroke="#243bf5" stroke-width="1.3632" stroke-linecap="square" stroke-linejoin="bevel"/><ellipse id="shape1" transform="translate(19.2660803059273, 42.4033652007648)" rx="19.4422944550669" ry="19.0366347992352" cx="19.4422944550669" cy="19.0366347992352" fill="#753700" fill-rule="evenodd" stroke="#753700" stroke-width="1.3632" stroke-linecap="square" stroke-linejoin="bevel"/><ellipse id="shape2" transform="translate(19.0311281070746, 42.12)" rx="13.9665774378585" ry="19.32" cx="13.9665774378585" cy="19.32" fill="#000000" fill-rule="evenodd" stroke="#000000" stroke-width="1.3632" stroke-linecap="square" stroke-linejoin="bevel"/><ellipse id="shape3" transform="translate(49.2, 66.24)" rx="3.12" ry="3.12" cx="3.12" cy="3.12" fill="#000000" fill-rule="evenodd" stroke="#000000" stroke-width="1.3632" stroke-linecap="square" stroke-linejoin="bevel"/><path id="shape4" transform="translate(47.1000010531076, 68.6400015347199)" fill="none" stroke="#000000" stroke-width="1.3632" stroke-linecap="square" stroke-linejoin="miter" stroke-miterlimit="2" d="M0 0L7.92 3.12"/><rect id="shape5" transform="matrix(0.999749979282207 -0.0223602085239076 0.0223602085239076 0.999749979282207 31.512474739113 90.9871176658296)" fill="#243bf5" fill-rule="evenodd" stroke="#243bf5" stroke-width="1.3632" stroke-linecap="square" stroke-linejoin="bevel" width="50.64" height="10.08"/><rect id="shape01" transform="matrix(1.00000001986034 0 0 1.00000001986034 87.2448705460279 88.0366924060677)" fill="#000000" fill-rule="evenodd" stroke="#000000" stroke-width="1.3632" stroke-linecap="square" stroke-linejoin="bevel" width="14.64" height="3.6"/><rect id="shape02" transform="matrix(0.999999993319269 0 0 0.999999993319269 87.3717061789488 80.0194852968577)" fill="#000000" fill-rule="evenodd" stroke="#000000" stroke-width="1.3632" stroke-linecap="square" stroke-linejoin="bevel" width="14.64" height="3.6"/><rect id="shape2" transform="matrix(0.999999993319269 0 0 0.999999993319269 77.0517062478939 79.9758099871918)" fill="#4c4c4c" fill-rule="evenodd" stroke="#4c4c4c" stroke-width="1.3632" stroke-linecap="square" stroke-linejoin="bevel" width="9.36" height="12.24"/><rect id="shape3" transform="matrix(0.999999993319269 0 0 0.999999993319269 79.2117062334635 82.6466398534285)" fill="#818181" fill-rule="evenodd" stroke="#818181" stroke-width="1.3632" stroke-linecap="square" stroke-linejoin="bevel" width="4.8" height="6.70337204189629"/><rect id="shape4" transform="matrix(0.999999993319269 0 0 0.999999993319269 79.6917062302568 84.295809958331)" fill="#f5f5f5" fill-rule="evenodd" stroke="#f5f5f5" stroke-width="1.3632" stroke-linecap="square" stroke-linejoin="bevel" width="1.91999999999999" height="3.36"/><rect id="shape5" transform="matrix(0.999999993319269 0 0 0.999999993319269 87.1317061805521 83.8594852712037)" fill="#000000" fill-rule="evenodd" stroke="#000000" stroke-width="1.3632" stroke-linecap="square" stroke-linejoin="bevel" width="17.04" height="4.56"/><rect id="shape6" transform="matrix(0.999999993319269 0 0 0.999999993319269 88.0917061741386 84.0994852696003)" fill="#818181" fill-rule="evenodd" stroke="#818181" stroke-width="1.3632" stroke-linecap="square" stroke-linejoin="bevel" width="14.64" height="0.719999999999999"/><path id="shape7" transform="matrix(0.999999993319269 0 0 0.999999993319269 88.1620731987441 80.6101730011773)" fill="none" stroke="#818181" stroke-width="1.3632" stroke-linecap="square" stroke-linejoin="miter" stroke-miterlimit="2" d="M0 0L12.6496 0"/><path id="shape8" transform="matrix(0.999999993319269 0 0 0.999999993319269 87.9923675754428 91.2167744575078)" fill="none" stroke="#818181" stroke-width="1.3632" stroke-linecap="square" stroke-linejoin="miter" stroke-miterlimit="2" d="M0 0L12.8193 0"/><rect id="shape9" transform="matrix(0.999999993319269 0 0 0.999999993319269 104.566853251855 83.5055155880458)" fill="#4c4c4c" fill-rule="evenodd" stroke="#4c4c4c" stroke-width="1.3632" stroke-linecap="square" stroke-linejoin="bevel" width="12.96" height="5.04"/>
</svg>
