<?xml version="1.0" standalone="no"?>
<!DOCTYPE svg PUBLIC "-//W3C//DTD SVG 20010904//EN" "http://www.w3.org/TR/2001/REC-SVG-20010904/DTD/svg10.dtd">
<!-- Created using Krita: https://krita.org -->
<svg xmlns="http://www.w3.org/2000/svg" 
    xmlns:xlink="http://www.w3.org/1999/xlink"
    xmlns:krita="http://krita.org/namespaces/svg/krita"
    xmlns:sodipodi="http://sodipodi.sourceforge.net/DTD/sodipodi-0.dtd"
    width="122.88pt"
    height="122.88pt"
    viewBox="0 0 122.88 122.88">
<defs/>
<rect id="shape1" transform="matrix(1.00000009839499 0 0 1.00000009839499 53.051717043722 81.4158185323985)" fill="#753700" fill-rule="evenodd" stroke="#753700" stroke-width="1.3632" stroke-linecap="square" stroke-linejoin="bevel" width="23.28" height="9.12"/><rect id="shape0" transform="matrix(0.844182302735536 0.53605636789145 -0.53605636789145 0.844182302735536 72.140926168425 49.0429611476058)" fill="#ff0000" fill-rule="evenodd" stroke="#ff0000" stroke-width="1.3632" stroke-linecap="square" stroke-linejoin="bevel" width="50.64" height="10.08"/><circle id="shape01" transform="matrix(1.00000010507573 0 0 1.00000010507573 6.24000571671561 28.0800029505269)" r="33.36" cx="33.36" cy="33.36" fill="#ff0000" fill-rule="evenodd" stroke="#ff0000" stroke-width="1.3632" stroke-linecap="square" stroke-linejoin="bevel"/><ellipse id="shape11" transform="matrix(1.00000010507573 0 0 1.00000010507573 19.2660873913681 42.40336965633)" rx="19.4422944550669" ry="19.0366347992352" cx="19.4422944550669" cy="19.0366347992352" fill="#753700" fill-rule="evenodd" stroke="#753700" stroke-width="1.3632" stroke-linecap="square" stroke-linejoin="bevel"/><ellipse id="shape2" transform="matrix(1.00000010507573 0 0 1.00000010507573 19.0311351678276 42.1200044257905)" rx="13.9665774378585" ry="19.32" cx="13.9665774378585" cy="19.32" fill="#000000" fill-rule="evenodd" stroke="#000000" stroke-width="1.3632" stroke-linecap="square" stroke-linejoin="bevel"/><circle id="shape3" transform="matrix(1.00000010507573 0 0 1.00000010507573 49.2000102307697 66.2400069602175)" r="3.12" cx="3.12" cy="3.12" fill="#000000" fill-rule="evenodd" stroke="#000000" stroke-width="1.3632" stroke-linecap="square" stroke-linejoin="bevel"/><path id="shape4" transform="matrix(1.00000010507573 0 0 1.00000010507573 47.1000110632183 68.6400087471194)" fill="none" stroke="#000000" stroke-width="1.3632" stroke-linecap="square" stroke-linejoin="miter" stroke-miterlimit="2" d="M0 0L7.92 3.12"/><rect id="shape5" transform="matrix(0.999750084331682 -0.0223602108734232 0.0223602108734232 0.999750084331682 31.5124831113527 90.9871272263689)" fill="#ff0000" fill-rule="evenodd" stroke="#ff0000" stroke-width="1.3632" stroke-linecap="square" stroke-linejoin="bevel" width="50.64" height="10.08"/><rect id="shape011" transform="matrix(1.00000012493607 0 0 1.00000012493607 87.2448847743908 88.0367016565889)" fill="#000000" fill-rule="evenodd" stroke="#000000" stroke-width="1.3632" stroke-linecap="square" stroke-linejoin="bevel" width="14.64" height="3.6"/><rect id="shape02" transform="matrix(1.00000009839499 0 0 1.00000009839499 87.3717204206391 80.0194937049649)" fill="#000000" fill-rule="evenodd" stroke="#000000" stroke-width="1.3632" stroke-linecap="square" stroke-linejoin="bevel" width="14.64" height="3.6"/><rect id="shape21" transform="matrix(1.00000009839499 0 0 1.00000009839499 77.0517194052024 79.9758183907098)" fill="#4c4c4c" fill-rule="evenodd" stroke="#4c4c4c" stroke-width="1.3632" stroke-linecap="square" stroke-linejoin="bevel" width="9.36" height="12.24"/><rect id="shape31" transform="matrix(1.00000009839499 0 0 1.00000009839499 79.2117196177355 82.6466485375858)" fill="#818181" fill-rule="evenodd" stroke="#818181" stroke-width="1.3632" stroke-linecap="square" stroke-linejoin="bevel" width="4.8" height="6.70337204189629"/><rect id="shape41" transform="matrix(1.00000009839499 0 0 1.00000009839499 79.6917196649653 84.2958188157762)" fill="#f5f5f5" fill-rule="evenodd" stroke="#f5f5f5" stroke-width="1.3632" stroke-linecap="square" stroke-linejoin="bevel" width="1.91999999999999" height="3.36"/><rect id="shape51" transform="matrix(1.00000009839499 0 0 1.00000009839499 87.1317203970242 83.8594940828017)" fill="#000000" fill-rule="evenodd" stroke="#000000" stroke-width="1.3632" stroke-linecap="square" stroke-linejoin="bevel" width="17.04" height="4.56"/><rect id="shape6" transform="matrix(1.00000009839499 0 0 1.00000009839499 88.0917204914835 84.0994941064164)" fill="#818181" fill-rule="evenodd" stroke="#818181" stroke-width="1.3632" stroke-linecap="square" stroke-linejoin="bevel" width="14.64" height="0.719999999999999"/><path id="shape7" transform="matrix(1.00000009839499 0 0 1.00000009839499 88.1620875234827 80.6101814713514)" fill="none" stroke="#818181" stroke-width="1.3632" stroke-linecap="square" stroke-linejoin="miter" stroke-miterlimit="2" d="M0 0L12.6496 0"/><path id="shape8" transform="matrix(1.00000009839499 0 0 1.00000009839499 87.9923818823495 91.2167840421785)" fill="none" stroke="#818181" stroke-width="1.3632" stroke-linecap="square" stroke-linejoin="miter" stroke-miterlimit="2" d="M0 0L12.8193 0"/><rect id="shape9" transform="matrix(1.00000009839499 0 0 1.00000009839499 104.566869300337 83.5055243624503)" fill="#4c4c4c" fill-rule="evenodd" stroke="#4c4c4c" stroke-width="1.3632" stroke-linecap="square" stroke-linejoin="bevel" width="12.96" height="5.04"/>
</svg>
