<?xml version="1.0" standalone="no"?>
<!DOCTYPE svg PUBLIC "-//W3C//DTD SVG 20010904//EN" "http://www.w3.org/TR/2001/REC-SVG-20010904/DTD/svg10.dtd">
<!-- Created using Krita: https://krita.org -->
<svg xmlns="http://www.w3.org/2000/svg" 
    xmlns:xlink="http://www.w3.org/1999/xlink"
    xmlns:krita="http://krita.org/namespaces/svg/krita"
    xmlns:sodipodi="http://sodipodi.sourceforge.net/DTD/sodipodi-0.dtd"
    width="122.88pt"
    height="122.88pt"
    viewBox="0 0 122.88 122.88">
<defs/>
<rect id="shape0" transform="matrix(0 1.00000002235174 -1.00000002235174 0 90.2134557133654 28.3465469366572)" fill="#535353" fill-rule="evenodd" stroke="#535353" stroke-width="2.0328" stroke-linecap="square" stroke-linejoin="bevel" width="78.72" height="83.04"/><rect id="shape1" transform="matrix(0 1.00000002235174 -1.00000002235174 0 74.8534553700426 92.1865483635924)" fill="#7e7e7e" fill-rule="evenodd" stroke="#7e7e7e" stroke-width="14.0784" stroke-linecap="square" stroke-linejoin="bevel" width="5.04000000000001" height="55.92"/><ellipse id="shape2" transform="matrix(0 1.00000002235174 -1.00000002235174 0 99.0934559118489 27.9275794320726)" rx="40.0593499043977" ry="8.4" cx="40.0593499043977" cy="8.4" fill="#ff0033" fill-rule="evenodd" stroke="#ff0033" stroke-width="0.8592" stroke-linecap="square" stroke-linejoin="bevel"/><rect id="shape3" transform="matrix(0 1.00000002235174 -1.00000002235174 0 94.2934558045605 27.6265469205639)" fill="#ff0033" fill-rule="evenodd" stroke="#ff0033" stroke-width="0.8592" stroke-linecap="square" stroke-linejoin="bevel" width="80.4" height="3.84"/><ellipse id="shape4" transform="matrix(0 1.00000002235174 -1.00000002235174 0 105.956114198002 27.960962555746)" rx="40.1262458830839" ry="10.56" cx="40.1262458830839" cy="10.56" fill="#ff0033" fill-rule="evenodd" stroke="#ff0033" stroke-width="0.8592" stroke-linecap="square" stroke-linejoin="bevel"/><ellipse id="shape5" transform="matrix(0 1.00000002235174 -1.00000002235174 0 111.813456196163 27.6265469205639)" rx="40.2" ry="15" cx="40.2" cy="15" fill="#ff0033" fill-rule="evenodd" stroke="#ff0033" stroke-width="0.8592" stroke-linecap="square" stroke-linejoin="bevel"/><ellipse id="shape6" transform="matrix(-0.0212765964325065 1.00000002235174 -1.00000002235174 2.46330733588707e-16 100.181115739269 29.5465470084912)" rx="6.11999983529694" ry="5.58382992099145" cx="6.11999983529694" cy="5.58382992099145" fill="#c82923" fill-rule="evenodd" stroke="#c82923" stroke-width="0.8592" stroke-linecap="square" stroke-linejoin="bevel"/>
</svg>
